<svg width="128" height="128" viewBox="0 0 128 128" xmlns="http://www.w3.org/2000/svg" role="img" aria-labelledby="title desc">
  <title id="title">Recipes Library Logo</title>
  <desc id="desc">A green recipe book with a bookmark and spoon symbol.</desc>
  <defs>
    <linearGradient id="bg" x1="12" y1="10" x2="116" y2="118" gradientUnits="userSpaceOnUse">
      <stop stop-color="#3A8B63"/>
      <stop offset="1" stop-color="#1F5C3F"/>
    </linearGradient>
  </defs>
  <rect x="10" y="10" width="108" height="108" rx="24" fill="url(#bg)"/>
  <path d="M41 34C35.4772 34 31 38.4772 31 44V84C31 89.5228 35.4772 94 41 94H90C95.5228 94 100 89.5228 100 84V44C100 38.4772 95.5228 34 90 34H41Z" fill="#F5FBF7"/>
  <path d="M45 40H82C86.4183 40 90 43.5817 90 48V80C90 84.4183 86.4183 88 82 88H45C42.7909 88 41 86.2091 41 84V44C41 41.7909 42.7909 40 45 40Z" fill="#E1F0E6"/>
  <path d="M45 40H80C84.4183 40 88 43.5817 88 48V87H45C42.7909 87 41 85.2091 41 83V44C41 41.7909 42.7909 40 45 40Z" fill="#FFFFFF"/>
  <rect x="52" y="50" width="26" height="6" rx="3" fill="#8DD1AC"/>
  <rect x="52" y="61" width="20" height="5" rx="2.5" fill="#B6E2C8"/>
  <path d="M86 38V58L78 52L70 58V38H86Z" fill="#F6C26A"/>
  <path d="M57.2 72.5C57.9 70.1 59.8 68.5 62.1 68.5C65 68.5 67.4 71 67.4 73.9C67.4 76.8 65 79.3 62.1 79.3H56.7C54.8 79.3 53.2 77.8 53.2 75.8C53.2 74.1 54.4 72.8 56.1 72.5H57.2Z" fill="#2F7A55"/>
  <path d="M68 66.3C68.5 65.7 69.4 65.6 70 66.1C70.6 66.6 70.7 67.5 70.2 68.1L65.8 73.3C65.3 73.9 64.4 74 63.8 73.5C63.2 73 63.1 72.1 63.6 71.5L68 66.3Z" fill="#2F7A55"/>
</svg>
